<svg width="4000" height="1656" viewBox="0 0 4000 1656" fill="none" xmlns="http://www.w3.org/2000/svg">
<path d="M1729.07 1655.19C1650.65 1655.19 1585.71 1642.72 1534.27 1617.81C1482.8 1592.87 1441.76 1558.61 1411.13 1514.89C1380.51 1471.21 1357.62 1420.76 1342.53 1363.58C1327.42 1306.42 1317.6 1245.16 1313.13 1179.8C1308.64 1114.47 1306.4 1048.31 1306.4 981.308C1306.4 905.351 1308.84 831.217 1313.75 758.927C1318.67 686.636 1323.95 625.991 1329.69 576.99L1555.14 590.457C1546.96 650.08 1540.62 703.392 1536.14 750.349C1531.65 797.327 1528.58 841.617 1526.94 883.284C1525.29 924.951 1524.49 967.819 1524.49 1011.93C1524.49 1046.24 1525.11 1083.2 1526.34 1122.82C1527.56 1162.44 1531.22 1201.67 1537.36 1240.45C1543.49 1279.25 1553.29 1314.38 1566.76 1345.83C1580.23 1377.27 1599.43 1402.6 1624.34 1421.78C1649.25 1440.98 1681.32 1450.58 1720.52 1450.58C1762.98 1450.58 1797.5 1440.98 1824.05 1421.78C1850.59 1402.6 1871.23 1376.87 1885.92 1344.6C1900.63 1312.34 1911.23 1276.4 1917.79 1236.78C1924.32 1197.18 1928.21 1156.73 1929.43 1115.49C1930.65 1074.27 1931.28 1035.24 1931.28 998.486C1931.28 929.063 1929.23 861.684 1925.14 796.327C1921.03 730.993 1915.74 661.547 1909.21 588.035L2134.66 570.879C2141.19 649.302 2146.08 720.97 2149.35 785.905C2152.61 850.839 2154.26 910.685 2154.26 965.397C2154.26 1039.73 2151.59 1111.2 2146.3 1179.8C2140.99 1248.4 2130.17 1311.51 2113.83 1369.09C2097.48 1426.67 2073.81 1476.92 2042.77 1519.78C2011.72 1562.67 1970.68 1595.94 1919.63 1619.65C1868.59 1643.34 1805.07 1655.19 1729.12 1655.19H1729.07Z" fill="white"/>
<path d="M2118.68 1649.07C2116.23 1568.21 2115.01 1490.63 2115.01 1416.27C2115.01 1282.31 2119.1 1161.02 2127.26 1052.38C2135.41 943.752 2147.26 851.439 2162.79 775.482C2170.15 740.37 2180.55 706.459 2194.04 673.792C2207.5 641.124 2226.7 614.368 2251.61 593.546C2276.53 572.723 2309.39 562.301 2350.24 562.301C2391.08 562.301 2424.15 572.701 2451.93 593.546C2479.68 614.368 2502.35 639.48 2519.93 668.903C2537.49 698.303 2550.35 726.481 2558.53 753.437C2579.77 817.15 2597.73 880.862 2612.44 944.574C2627.15 1008.29 2640.2 1069.15 2651.64 1127.13C2659.8 1084.67 2669.2 1039.95 2679.82 992.975C2690.42 946.018 2701.04 901.506 2711.67 859.417C2722.27 817.349 2732.07 782.438 2741.07 754.66C2782.73 626.435 2846.85 562.301 2933.43 562.301C2981.6 562.301 3022.45 579.657 3055.96 614.368C3089.45 649.102 3113.94 699.125 3129.47 764.46C3136.83 793.86 3144.36 836.75 3152.14 893.106C3159.9 949.463 3167.25 1016.24 3174.21 1093.42C3181.14 1170.6 3187.25 1255.76 3192.59 1348.87C3197.9 1441.98 3202.19 1540.83 3205.45 1645.36L2989.8 1640.45C2989.8 1597.14 2988.76 1546.94 2986.74 1489.76C2984.69 1432.6 2981.83 1373.18 2978.16 1311.49C2974.49 1249.82 2970.38 1189.58 2965.89 1130.78C2961.4 1071.98 2956.89 1018.89 2952.43 971.508C2947.94 924.151 2943.65 886.351 2939.56 858.172C2935.47 829.994 2931.78 815.905 2928.54 815.905C2927.71 815.905 2923.43 830.416 2915.67 859.395C2907.89 888.395 2898.51 926.996 2887.49 975.174C2876.47 1023.38 2864.4 1076.46 2851.36 1134.44C2838.29 1192.44 2825.42 1250.65 2812.76 1309.02C2800.09 1367.45 2788.87 1421.34 2779.07 1470.76C2769.27 1520.18 2761.49 1560.38 2755.8 1591.45L2563.44 1596.34C2553.64 1550.61 2542 1500.16 2528.53 1445.03C2515.06 1389.89 2501.15 1333.54 2486.86 1275.93C2472.57 1218.36 2458.46 1162.82 2444.59 1109.31C2430.71 1055.82 2417.84 1007.82 2405.99 965.352C2394.15 922.885 2384.55 889.195 2377.19 864.261C2369.84 839.35 2365.35 826.905 2363.73 826.905C2360.46 826.905 2356.99 844.661 2353.33 880.195C2349.66 915.729 2346.17 963.73 2342.9 1024.15C2339.64 1084.62 2336.97 1152.8 2334.95 1228.76C2332.9 1304.71 2331.88 1383.14 2331.88 1464C2331.88 1502.41 2332.08 1537.52 2332.48 1569.36C2332.88 1601.23 2333.5 1627.34 2334.33 1647.79L2118.7 1649.01L2118.68 1649.07Z" fill="white"/>
<path d="M3203.61 1641.72C3202.78 1615.56 3202.38 1589.23 3202.38 1562.7V1483.67C3202.38 1363.6 3204.83 1247.02 3209.74 1133.87C3214.65 1020.75 3220.34 912.708 3226.9 809.795C3194.21 817.973 3166.85 825.729 3144.81 833.062L3097.03 637.037C3137.05 624.792 3179.32 613.97 3223.83 604.57C3268.34 595.192 3312.05 587.414 3354.92 581.303C3397.81 575.169 3437.41 570.703 3473.77 567.836C3510.1 564.991 3540.12 563.547 3563.81 563.547C3589.12 563.547 3620.37 565.591 3657.55 569.68C3694.7 573.769 3733.08 582.147 3772.71 594.792C3812.31 607.459 3849.28 626.459 3883.6 651.771C3917.91 677.104 3945.86 711.194 3967.53 754.083C3989.15 796.973 4000 850.685 4000 915.197C4000 979.709 3985.31 1037.93 3955.89 1082.44C3926.49 1126.98 3887.66 1162.51 3839.48 1189.05C3791.28 1215.6 3738.19 1234.6 3680.21 1246.03C3622.21 1257.47 3565.06 1263.18 3508.68 1263.18C3472.72 1263.18 3438.41 1261.56 3405.77 1258.29C3404.94 1297.49 3404.54 1336.29 3404.54 1374.69C3404.54 1426.98 3404.94 1475.38 3405.77 1519.87C3406.57 1564.39 3408.21 1603.39 3410.68 1636.88L3203.61 1641.79V1641.72ZM3557.7 764.461C3536.46 764.461 3514.61 765.284 3492.14 766.906C3469.68 768.55 3447.43 770.573 3425.37 773.039C3421.28 816.351 3418.01 863.307 3415.57 913.931C3413.12 964.576 3411.08 1016.44 3409.43 1069.53C3439.63 1071.98 3471.1 1073.2 3503.77 1073.2C3699.79 1073.2 3797.82 1015.22 3797.82 899.219C3797.82 853.485 3778.22 819.573 3739.02 797.529C3699.82 775.462 3639.35 764.439 3557.68 764.439L3557.7 764.461Z" fill="white"/>
<path d="M1351.62 1605.34C1340.38 1606.36 1328.13 1606.87 1314.89 1606.87H1268.98C1225.11 1606.87 1172.8 1605.87 1112.06 1603.8C1051.35 1601.76 986.528 1598.72 917.66 1594.63C848.77 1590.56 779.391 1586.47 709.479 1582.38C639.589 1578.32 572.476 1573.96 508.186 1569.36C443.896 1564.76 386.251 1560.43 335.206 1556.34C342.361 1578.8 348.984 1598.69 355.117 1616.05L97.9572 1655.85C65.3122 1540.54 40.8229 1433.11 24.4893 1333.62C8.17792 1234.11 0 1144.06 0 1063.44C0 899.149 31.1339 773.613 93.3794 686.856C155.647 600.121 245.96 556.743 364.339 556.743C431.696 556.743 488.097 571.543 533.498 601.144C578.921 630.766 616.433 672.589 646.011 726.679C713.368 594.032 823.081 527.676 975.128 527.676C1042.48 527.676 1098.89 540.187 1144.29 565.187C1189.71 590.21 1226.18 622.077 1253.73 660.856C1281.29 699.656 1301.96 740.724 1315.73 784.08C1329.51 827.459 1338.69 868.281 1343.29 906.549C1347.89 944.816 1350.18 974.661 1350.18 996.106C1350.18 1049.17 1345.07 1105.82 1334.87 1166.02C1324.64 1226.24 1309.36 1284.91 1288.95 1342.07H1347.11L1351.71 1605.36L1351.62 1605.34ZM780.635 1193.55V1258.62C780.635 1280.58 781.169 1302.78 782.169 1325.22C827.081 1327.27 871.992 1329.04 916.882 1330.58C961.794 1332.11 1006.19 1333.89 1050.06 1335.93C1067.44 1278.8 1079.91 1222.67 1087.57 1167.55C1095.22 1112.44 1099.04 1065 1099.04 1025.2C1099.04 940.505 1088.6 879.771 1067.66 843.037C1046.75 806.303 1012.31 787.925 964.327 787.925C905.148 787.925 859.726 822.881 828.081 892.771C796.458 962.683 780.635 1062.95 780.635 1193.58V1193.55ZM255.582 1057.31C255.582 1094.04 257.382 1132.57 260.938 1172.89C264.516 1213.22 269.893 1253.24 277.005 1293.04C351.517 1299.16 438.252 1305.29 537.231 1311.4C538.253 1298.16 538.765 1284.62 538.765 1270.84V1228.75C538.765 959.35 483.653 824.636 373.428 824.636C336.695 824.636 307.872 845.303 286.938 886.637C266.027 927.971 255.56 984.861 255.56 1057.33L255.582 1057.31Z" fill="white"/>
<path d="M390.897 645.431C345.919 645.431 305.029 637.187 268.184 620.675C231.339 604.164 199.538 581.319 172.738 552.141C145.938 522.963 125.382 489.718 111.026 452.406C96.6701 415.094 89.4922 375.627 89.4922 334.004C89.4922 295.737 95.2256 258.069 106.715 220.98C118.204 183.912 135.648 150.179 159.093 119.8C182.538 89.422 212.316 65.1549 248.428 46.9546C284.54 28.7765 327.229 19.6875 376.519 19.6875C425.809 19.6875 472.187 28.421 509.988 45.8879C547.767 63.3549 578.878 86.6886 603.279 115.845C627.679 145.023 645.857 178.046 657.813 214.869C669.769 251.714 675.746 289.492 675.746 328.248C675.746 374.649 668.813 417.227 654.946 455.984C641.057 494.74 621.457 528.34 596.101 556.808C570.745 585.275 540.611 607.142 505.677 622.475C470.743 637.787 432.476 645.431 390.853 645.431H390.897ZM388.031 466.028C407.898 466.028 426.276 461.139 443.143 451.384C460.032 441.628 473.588 426.317 483.854 405.45C494.121 384.582 499.255 357.449 499.255 324.004C499.255 295.203 493.632 271.536 482.365 253.002C471.099 234.469 456.543 220.735 438.676 211.78C420.809 202.846 402.097 198.379 382.564 198.379C360.386 198.379 341.674 202.357 326.452 210.291C311.229 218.246 298.962 228.913 289.718 242.313C280.451 255.714 273.829 270.692 269.851 287.248C265.873 303.803 263.895 320.848 263.895 338.382C263.895 355.915 267.206 371.893 273.829 387.294C280.451 402.694 289.473 416.272 300.896 428.005C312.318 439.761 325.474 449.028 340.363 455.806C355.252 462.584 371.141 465.984 388.031 465.984V466.028Z" fill="white"/>
<path d="M1007.6 625.744C962.618 625.744 921.728 617.499 884.883 600.988C848.038 584.477 816.238 561.632 789.437 532.453C762.637 503.275 742.081 470.03 727.725 432.718C713.369 395.407 706.191 355.939 706.191 314.316C706.191 276.049 711.925 238.382 723.414 201.292C734.903 164.225 752.348 130.491 775.793 100.113C799.237 69.7345 829.016 45.4674 865.127 27.2671C901.239 9.08905 943.929 0 993.218 0C1042.51 0 1088.89 8.73346 1126.69 26.2004C1164.47 43.6674 1195.58 67.0011 1219.98 96.1572C1244.38 125.335 1262.56 158.358 1274.51 195.181C1286.47 232.026 1292.45 269.805 1292.45 308.561C1292.45 354.962 1285.51 397.54 1271.65 436.296C1257.76 475.052 1238.16 508.653 1212.8 537.12C1187.44 565.587 1157.31 587.454 1122.38 602.788C1087.44 618.099 1049.17 625.744 1007.55 625.744H1007.6ZM1004.73 446.341C1024.6 446.341 1042.97 441.452 1059.84 431.696C1076.73 421.94 1090.29 406.629 1100.55 385.762C1110.82 364.895 1115.95 337.761 1115.95 304.316C1115.95 275.516 1110.33 251.849 1099.06 233.315C1087.8 214.781 1073.24 201.048 1055.38 192.092C1037.51 183.159 1018.8 178.692 999.263 178.692C977.085 178.692 958.373 182.67 943.151 190.603C927.928 198.559 915.662 209.226 906.417 222.626C897.15 236.026 890.528 251.004 886.55 267.56C882.572 284.116 880.594 301.161 880.594 318.694C880.594 336.228 883.906 352.206 890.528 367.606C897.15 383.006 906.173 396.584 917.595 408.318C929.017 420.074 942.173 429.341 957.062 436.118C971.951 442.896 987.841 446.296 1004.73 446.296V446.341Z" fill="white"/>
</svg>
