<svg width="2090" height="739" viewBox="0 0 2090 739" fill="none" xmlns="http://www.w3.org/2000/svg">
<g clip-path="url(#clip0_641_80)">
<path d="M50.6531 455.8L47.6531 410.8L218.053 386.8C216.853 368 210.253 352.4 198.253 340C186.253 327.2 169.253 320.8 147.253 320.8C124.853 320.8 106.253 328.8 91.4531 344.8C76.6531 360.8 69.0531 383.6 68.6531 413.2L69.8531 436C73.0531 464.4 83.2531 485.8 100.453 500.2C117.653 514.2 140.253 521.2 168.253 521.2C185.053 521.2 200.453 518.6 214.453 513.4C228.453 508.2 239.653 502.6 248.053 496.6C252.853 499.4 256.653 503.2 259.453 508C262.653 512.8 264.253 518 264.253 523.6C264.253 532.4 259.853 540.4 251.053 547.6C242.253 554.8 230.253 560.4 215.053 564.4C200.253 568.4 183.453 570.4 164.653 570.4C133.853 570.4 106.853 564.8 83.6531 553.6C60.4531 542 42.4531 525 29.6531 502.6C16.8531 479.8 10.4531 452 10.4531 419.2C10.4531 395.6 13.8531 374.8 20.6531 356.8C27.8531 338.4 37.6531 323 50.0531 310.6C62.4531 298.2 77.0531 288.8 93.8531 282.4C110.653 276 128.653 272.8 147.853 272.8C173.053 272.8 195.253 278.2 214.453 289C234.053 299.4 249.253 314 260.053 332.8C270.853 351.6 276.253 373 276.253 397C276.253 407 273.853 414.4 269.053 419.2C264.253 423.6 257.453 426.4 248.653 427.6L50.6531 455.8ZM577.659 367.6V436.6H516.459V374.2C516.459 356.2 511.259 343.2 500.859 335.2C490.459 326.8 477.059 322.6 460.659 322.6C449.459 322.6 438.659 324.4 428.259 328C418.259 331.6 409.859 335.6 403.059 340V436.6H341.259V338.8C341.259 330 343.059 322.6 346.659 316.6C350.659 310.6 356.859 305 365.259 299.8C376.459 292.2 390.859 285.8 408.459 280.6C426.059 275.4 443.859 272.8 461.859 272.8C481.859 272.8 499.859 276 515.859 282.4C531.859 288.4 544.459 297 553.659 308.2C556.459 310.6 558.859 313 560.859 315.4C562.859 317.4 564.659 320 566.259 323.2C569.459 328.8 572.059 335.4 574.059 343C576.459 350.6 577.659 358.8 577.659 367.6ZM752.259 371.2V436.6H691.059V374.2C691.059 356.2 686.059 343.2 676.059 335.2C666.059 326.8 652.659 322.6 635.859 322.6C623.459 322.6 611.459 325.2 599.859 330.4C588.659 335.6 578.659 342.6 569.859 351.4L541.059 311.2C552.659 300.8 566.859 291.8 583.659 284.2C600.459 276.6 620.059 272.8 642.459 272.8C663.659 272.8 682.459 276.4 698.859 283.6C715.659 290.4 728.659 301.2 737.859 316C747.459 330.4 752.259 348.8 752.259 371.2ZM341.259 406H403.059V560.8C400.259 561.6 396.259 562.6 391.059 563.8C386.259 565 380.859 565.6 374.859 565.6C363.659 565.6 355.259 563.4 349.659 559C344.059 554.6 341.259 547.4 341.259 537.4V406ZM516.459 406H577.659V560.8C575.259 561.6 571.459 562.6 566.259 563.8C561.059 565 555.459 565.6 549.459 565.6C538.259 565.6 529.859 563.4 524.259 559C519.059 554.6 516.459 547.4 516.459 537.4V406ZM691.059 406H752.259V560.8C749.859 561.6 746.059 562.6 740.859 563.8C735.659 565 730.259 565.6 724.659 565.6C713.059 565.6 704.459 563.4 698.859 559C693.659 554.6 691.059 547.4 691.059 537.4V406ZM968.991 272.8C994.191 272.8 1016.99 278.4 1037.39 289.6C1057.79 300.4 1073.79 316.8 1085.39 338.8C1096.99 360.4 1102.79 387.8 1102.79 421C1102.79 454.6 1096.59 482.4 1084.19 504.4C1072.19 526.4 1055.39 543 1033.79 554.2C1012.19 565 986.791 570.4 957.591 570.4C936.391 570.4 917.591 567.8 901.191 562.6C884.791 557.4 871.191 551.6 860.391 545.2C851.991 539.2 845.991 533.4 842.391 527.8C838.791 522.2 836.991 515 836.991 506.2V310H898.791V504.4C904.391 508 912.191 511.6 922.191 515.2C932.591 518.8 944.391 520.6 957.591 520.6C982.391 520.6 1002.39 512.6 1017.59 496.6C1032.79 480.2 1040.39 455 1040.39 421C1040.39 387 1032.79 362.2 1017.59 346.6C1002.39 330.6 982.791 322.6 958.791 322.6C943.991 322.6 930.791 325.6 919.191 331.6C907.591 337.2 897.991 343.6 890.391 350.8L883.191 301C892.391 294.6 903.991 288.4 917.991 282.4C932.391 276 949.391 272.8 968.991 272.8ZM898.791 323.2H836.991V172.6C839.791 171.8 843.791 170.8 848.991 169.6C854.191 168.4 859.791 167.8 865.791 167.8C876.991 167.8 885.191 170 890.391 174.4C895.991 178.4 898.791 185.6 898.791 196V323.2Z" fill="#40B073"/>
<path d="M1692.68 341.2V429.4H1630.88V340C1630.88 330.4 1632.88 322.6 1636.88 316.6C1641.28 310.2 1647.68 304.2 1656.08 298.6C1667.28 291.4 1681.88 285.4 1699.88 280.6C1718.28 275.8 1738.28 273.4 1759.88 273.4C1794.68 273.4 1812.08 283.2 1812.08 302.8C1812.08 307.6 1811.28 312 1809.68 316C1808.48 320 1806.88 323.6 1804.88 326.8C1800.88 326 1795.68 325.2 1789.28 324.4C1783.28 323.6 1777.08 323.2 1770.68 323.2C1754.28 323.2 1739.28 325 1725.68 328.6C1712.48 331.8 1701.48 336 1692.68 341.2ZM1630.88 403.6L1692.68 409V560.8C1689.88 561.6 1685.88 562.6 1680.68 563.8C1675.88 565 1670.48 565.6 1664.48 565.6C1653.28 565.6 1644.88 563.4 1639.28 559C1633.68 554.6 1630.88 547.4 1630.88 537.4V403.6ZM1994.45 323.2C1969.25 323.2 1948.05 331.8 1930.85 349C1913.65 365.8 1905.05 390.2 1905.05 422.2C1905.05 453.8 1913.25 478 1929.65 494.8C1946.45 511.6 1968.05 520 1994.45 520C2010.05 520 2023.25 518 2034.05 514C2044.85 509.6 2054.25 504.8 2062.25 499.6C2067.45 502.8 2071.65 506.6 2074.85 511C2078.05 515.4 2079.65 520.6 2079.65 526.6C2079.65 539 2071.45 549.4 2055.05 557.8C2038.65 565.8 2017.45 569.8 1991.45 569.8C1962.25 569.8 1936.45 564.4 1914.05 553.6C1891.65 542.8 1874.05 526.4 1861.25 504.4C1848.85 482.4 1842.65 455 1842.65 422.2C1842.65 389 1849.25 361.4 1862.45 339.4C1875.65 317.4 1893.45 300.8 1915.85 289.6C1938.25 278.4 1962.85 272.8 1989.65 272.8C2015.25 272.8 2036.05 277.4 2052.05 286.6C2068.45 295.4 2076.65 305.8 2076.65 317.8C2076.65 323.4 2075.05 328.4 2071.85 332.8C2069.05 337.2 2065.45 340.8 2061.05 343.6C2052.65 338 2043.25 333.2 2032.85 329.2C2022.45 325.2 2009.65 323.2 1994.45 323.2Z" fill="#40B073"/>
<g clip-path="url(#clip1_641_80)">
<path d="M1292.87 503H1357V730C1357 730 1334.75 712.154 1328.21 706.443C1321.66 700.733 1315.77 696.45 1305.96 685.742C1296.14 675.035 1293.45 669.324 1288.94 663.458C1284.43 657.592 1279.78 649.336 1274.54 637.201C1269.31 625.066 1269.31 617.928 1269.31 617.928C1269.31 617.928 1268 607.298 1268 589.793C1268 572.289 1270.62 567.183 1270.62 567.183C1270.62 567.183 1273.23 554.784 1275.85 546.032C1278.47 537.28 1285.01 521.963 1285.01 521.963L1292.87 503Z" fill="#EE7E3E"/>
<path d="M1421.13 503H1357V730C1357 730 1379.25 712.154 1385.79 706.443C1392.34 700.733 1398.23 696.45 1408.04 685.742C1417.86 675.035 1420.55 669.324 1425.06 663.458C1429.57 657.592 1434.22 649.336 1439.46 637.201C1444.69 625.066 1444.69 617.928 1444.69 617.928C1444.69 617.928 1446 607.298 1446 589.793C1446 572.289 1443.38 567.183 1443.38 567.183C1443.38 567.183 1440.76 554.784 1438.15 546.032C1435.53 537.28 1428.98 521.963 1428.98 521.963L1421.13 503Z" fill="#EE7E3E"/>
<path d="M1315.93 503H1357V648.382C1357 648.382 1342.75 636.953 1338.56 633.295C1334.37 629.638 1330.6 626.895 1324.31 620.037C1318.02 613.179 1316.3 609.522 1313.41 605.765C1310.52 602.008 1307.54 596.721 1304.19 588.949C1300.84 581.177 1300.84 576.605 1300.84 576.605C1300.84 576.605 1300 569.797 1300 558.587C1300 547.376 1301.68 544.106 1301.68 544.106C1301.68 544.106 1303.35 536.165 1305.03 530.56C1306.71 524.954 1310.9 515.145 1310.9 515.145L1315.93 503Z" fill="#FAB153"/>
<path d="M1398.07 503H1357V648.382C1357 648.382 1371.25 636.953 1375.44 633.295C1379.63 629.638 1383.4 626.895 1389.69 620.037C1395.98 613.179 1397.7 609.522 1400.59 605.765C1403.48 602.008 1406.46 596.721 1409.81 588.949C1413.16 581.177 1413.16 576.605 1413.16 576.605C1413.16 576.605 1414 569.797 1414 558.587C1414 547.376 1412.32 544.106 1412.32 544.106C1412.32 544.106 1410.65 536.165 1408.97 530.56C1407.29 524.954 1403.1 515.145 1403.1 515.145L1398.07 503Z" fill="#FAB153"/>
<path d="M1332.5 503H1357V589.719C1357 589.719 1348.5 582.902 1346 580.72C1343.5 578.538 1341.25 576.902 1337.5 572.812C1333.75 568.721 1332.72 566.539 1331 564.299C1329.28 562.058 1327.5 558.904 1325.5 554.268C1323.5 549.632 1323.5 546.905 1323.5 546.905C1323.5 546.905 1323 542.844 1323 536.157C1323 529.47 1324 527.519 1324 527.519C1324 527.519 1325 522.783 1326 519.439C1327 516.096 1329.5 510.244 1329.5 510.244L1332.5 503Z" fill="#F8EA6E"/>
<path d="M1381.5 503H1357V589.719C1357 589.719 1365.5 582.902 1368 580.72C1370.5 578.538 1372.75 576.902 1376.5 572.812C1380.25 568.721 1381.28 566.539 1383 564.299C1384.72 562.058 1386.5 558.904 1388.5 554.268C1390.5 549.632 1390.5 546.905 1390.5 546.905C1390.5 546.905 1391 542.844 1391 536.157C1391 529.47 1390 527.519 1390 527.519C1390 527.519 1389 522.783 1388 519.439C1387 516.096 1384.5 510.244 1384.5 510.244L1381.5 503Z" fill="#F8EA6E"/>
<path d="M1242.5 299H1310L1229 531H1159L1242.5 299Z" fill="url(#paint0_linear_641_80)"/>
<path d="M1162.96 520H1232.84L1229 531H1159L1162.96 520Z" fill="url(#paint1_linear_641_80)"/>
<path d="M1332.5 46.9538C1341.5 34.1808 1357 11 1357 11V503H1254.5C1254.5 503 1249.5 473.196 1246.5 459.95C1243.5 446.704 1238.5 415.954 1237.5 407.912C1236.5 399.869 1231.5 355.873 1231.5 344.046C1231.5 332.219 1234 305.254 1235 296.265C1236 287.277 1238.5 271.192 1241.5 257.473C1244.5 243.754 1249.5 219.154 1254.5 204.962C1259.5 190.769 1270.5 159.546 1282 135.892C1293.5 112.238 1308 84.3269 1311.5 79.1231C1315 73.9192 1323.5 59.7269 1332.5 46.9538Z" fill="url(#paint2_linear_641_80)"/>
<path d="M1357 319H1347V531H1357V319Z" fill="#9E2929"/>
<path d="M1357 520.948H1347V531H1357V520.948Z" fill="#B04040"/>
<path d="M1349.55 140.215C1352.99 138.554 1357 138 1357 138V282H1305.42C1305.42 282 1304.47 262.062 1305.42 245.446C1306.38 228.831 1308.29 218.308 1309.44 212.215C1310.58 206.123 1313.45 192.646 1318.03 180.092C1322.62 167.538 1324.33 165.692 1328.35 159.6C1332.36 153.508 1335.22 151.292 1339.23 147.415C1343.25 143.538 1346.11 141.877 1349.55 140.215Z" fill="#801F1F"/>
<path d="M1350.5 148C1353.5 146.5 1357 146 1357 146V276H1312C1312 276 1311.17 258 1312 243C1312.83 228 1314.5 218.5 1315.5 213C1316.5 207.5 1319 195.333 1323 184C1327 172.667 1328.5 171 1332 165.5C1335.5 160 1338 158 1341.5 154.5C1345 151 1347.5 149.5 1350.5 148Z" fill="#00C0FF"/>
<path fill-rule="evenodd" clip-rule="evenodd" d="M1357 11C1357 11 1341.5 34.1808 1332.5 46.9538C1326.42 55.5831 1320.57 64.8602 1316.33 71.5758C1314.3 74.8007 1312.63 77.4349 1311.5 79.1231C1309.62 81.9195 1304.56 91.2733 1298.5 103H1357V11Z" fill="#C6CBD3"/>
<path d="M1471.5 299H1404L1485 531H1555L1471.5 299Z" fill="#9E2929"/>
<path d="M1551.04 520H1481.16L1485 531H1555L1551.04 520Z" fill="#D06060"/>
<path fill-rule="evenodd" clip-rule="evenodd" d="M1428 367.466L1472 493.489C1473.51 485.092 1475.26 475.863 1476.6 469.942C1479.6 456.696 1484.6 425.946 1485.6 417.904C1486.58 409.976 1491.45 367.105 1491.59 354.561L1471.6 299H1463.8C1462.67 305.574 1461.23 311.861 1459.6 317.992C1454.47 337.284 1442.59 354.365 1428 367.466Z" fill="#741515"/>
<path d="M1381.5 46.9538C1372.5 34.1808 1357 11 1357 11V503H1459.5C1459.5 503 1464.5 473.196 1467.5 459.95C1470.5 446.704 1475.5 415.954 1476.5 407.912C1477.5 399.869 1482.5 355.873 1482.5 344.046C1482.5 332.219 1480 305.254 1479 296.265C1478 287.277 1475.5 271.192 1472.5 257.473C1469.5 243.754 1464.5 219.154 1459.5 204.962C1454.5 190.769 1443.5 159.546 1432 135.892C1420.5 112.238 1406 84.3269 1402.5 79.1231C1399 73.9192 1390.5 59.7269 1381.5 46.9538Z" fill="#B04040"/>
<path d="M1364.45 140.215C1361.01 138.554 1357 138 1357 138V282H1408.57C1408.57 282 1409.53 262.062 1408.57 245.446C1407.62 228.831 1405.71 218.308 1404.56 212.215C1403.42 206.123 1400.55 192.646 1395.97 180.092C1391.38 167.538 1389.67 165.692 1385.65 159.6C1381.64 153.508 1378.78 151.292 1374.76 147.415C1370.75 143.538 1367.89 141.877 1364.45 140.215Z" fill="#741515"/>
<path d="M1363.5 148C1360.5 146.5 1357 146 1357 146V276H1402C1402 276 1402.83 258 1402 243C1401.17 228 1399.5 218.5 1398.5 213C1397.5 207.5 1395 195.333 1391 184C1387 172.667 1385.5 171 1382 165.5C1378.5 160 1376 158 1372.5 154.5C1369 151 1366.5 149.5 1363.5 148Z" fill="#00C0FF"/>
<path fill-rule="evenodd" clip-rule="evenodd" d="M1357 11C1357 11 1372.5 34.1808 1381.5 46.9538C1387.58 55.5831 1393.43 64.8602 1397.67 71.5758C1399.7 74.8007 1401.36 77.4349 1402.5 79.1231C1404.38 81.9195 1409.44 91.2733 1415.5 103H1357V11Z" fill="#A4A9B0"/>
<path fill-rule="evenodd" clip-rule="evenodd" d="M1358 384.492C1357.67 384.492 1357.33 384.487 1357 384.477V502.992H1459.5C1459.5 502.992 1464.5 473.188 1467.5 459.942C1470.5 446.696 1475.5 415.946 1476.5 407.904C1477.5 399.862 1482.5 355.865 1482.5 344.038C1482.5 332.211 1480 305.246 1479 296.258C1478 287.269 1475.5 271.185 1472.5 257.465C1472.1 255.644 1471.67 253.63 1471.2 251.475V251.474C1468.17 237.397 1463.84 217.262 1459.5 204.954C1454.5 190.762 1443.5 159.538 1432 135.885C1426.68 124.945 1420.72 113.094 1415.5 103C1464 211.995 1462.2 263.993 1450.5 307.992C1438.8 351.992 1392 384.492 1358 384.492Z" fill="#741515"/>
<path d="M1357 319H1367V531H1357V319Z" fill="#741515"/>
<path d="M1357 520.948H1367V531H1357V520.948Z" fill="#B04040"/>
<path fill-rule="evenodd" clip-rule="evenodd" d="M1246.34 334.41C1245.08 334.471 1243.96 334.5 1243 334.5C1250.95 286.5 1259.81 255 1265.41 238.5C1266.35 235.712 1267.55 231.784 1268.99 227.002C1275.34 206.055 1286.65 168.716 1304.19 139C1260.96 196 1246.89 278 1243 334.5H1246.34V334.41Z" fill="white"/>
<path d="M1342.5 188.5C1342.5 207.278 1336 208.764 1320.36 224.768C1320.36 208.268 1323.14 199.995 1328.5 182.5C1334.55 162.732 1344.5 158.264 1355.5 152.764C1354 169.264 1342.5 169.722 1342.5 188.5Z" fill="white"/>
</g>
</g>
<defs>
<linearGradient id="paint0_linear_641_80" x1="1253" y1="486" x2="1165" y2="512.5" gradientUnits="userSpaceOnUse">
<stop stop-color="#9E2929"/>
<stop offset="0.927083" stop-color="#D26767"/>
</linearGradient>
<linearGradient id="paint1_linear_641_80" x1="1226.5" y1="523.5" x2="1156.5" y2="529.5" gradientUnits="userSpaceOnUse">
<stop stop-color="#D06060"/>
<stop offset="1" stop-color="#F89595"/>
</linearGradient>
<linearGradient id="paint2_linear_641_80" x1="1344" y1="421" x2="1262" y2="495" gradientUnits="userSpaceOnUse">
<stop stop-color="#D06060"/>
<stop offset="1" stop-color="#E48989"/>
</linearGradient>
<clipPath id="clip0_641_80">
<rect width="2090" height="739" fill="white"/>
</clipPath>
<clipPath id="clip1_641_80">
<rect width="396" height="719" fill="white" transform="translate(1159 11)"/>
</clipPath>
</defs>
</svg>
